<svg width="64" height="64" viewBox="0 0 64 64" fill="none" xmlns="http://www.w3.org/2000/svg">
<path d="M38.6707 24.4974L40.144 23.0254L40.8507 22.3187C41.5318 21.6377 42.0721 20.8292 42.4407 19.9394C42.8094 19.0496 42.9991 18.0959 42.9991 17.1327C42.9991 16.1696 42.8094 15.2158 42.4407 14.326C42.0721 13.4362 41.5318 12.6277 40.8507 11.9467V11.9467C39.4754 10.5715 37.6102 9.79895 35.6653 9.79895C33.7205 9.79895 31.8553 10.5715 30.48 11.9467L12.2293 30.1974C12.1937 30.2331 12.1736 30.2816 12.1736 30.332C12.1736 30.3825 12.1937 30.431 12.2293 30.4667L21.5227 39.76C21.7727 40.01 22.1118 40.1504 22.4653 40.1504C22.8189 40.1504 23.158 40.01 23.408 39.76L28.3587 34.8107L29.832 33.3374" stroke="#01232B" stroke-width="4" stroke-linecap="round"/>
<path d="M37.5507 8.64672L39.908 6.28939C40.3414 5.85603 40.8558 5.51227 41.4221 5.27773C41.9883 5.0432 42.5951 4.92249 43.208 4.92249C43.8209 4.92249 44.4277 5.0432 44.9939 5.27773C45.5602 5.51227 46.0746 5.85603 46.508 6.28939C46.9414 6.72275 47.2851 7.23723 47.5197 7.80344C47.7542 8.36966 47.8749 8.97652 47.8749 9.58939C47.8749 10.2023 47.7542 10.8091 47.5197 11.3753C47.2851 11.9416 46.9414 12.456 46.508 12.8894L44.1507 15.2467L37.5507 8.64672V8.64672ZM13.98 32.2174L8.32401 37.8747L14.924 44.4747L20.58 38.8174L13.98 32.2174Z" stroke="#01232B" stroke-width="4" stroke-linecap="round" stroke-linejoin="round"/>
<path d="M30.48 33.632C32.8232 35.9751 36.6222 35.9751 38.9653 33.632C41.3084 31.2888 41.3084 27.4898 38.9653 25.1467C36.6222 22.8035 32.8232 22.8035 30.48 25.1467C28.1369 27.4898 28.1369 31.2888 30.48 33.632Z" stroke="#01232B" stroke-width="4"/>
<path d="M41.3333 29.3334C46.6667 29.3334 52 34.6667 52 42.6667C52 51.2001 45.1107 55.7774 41.3333 58.6667M8 26.6667L24.9707 43.6374L8 26.6667ZM13.3333 58.6667H56H13.3333Z" stroke="#01232B" stroke-width="4" stroke-linecap="round" stroke-linejoin="round"/>
</svg>
